<svg width="1820" height="480" viewBox="0 0 1820 480" fill="none" xmlns="http://www.w3.org/2000/svg">
<path d="M1135.52 310.744C1124.94 310.744 1115.59 308.849 1107.49 305.06C1099.39 301.271 1093.05 295.848 1088.48 288.792C1083.91 281.736 1081.62 273.243 1081.62 263.312V257.824H1107.1V263.312C1107.1 271.544 1109.65 277.751 1114.74 281.932C1119.84 285.983 1126.76 288.008 1135.52 288.008C1144.4 288.008 1151 286.244 1155.32 282.716C1159.76 279.188 1161.98 274.68 1161.98 269.192C1161.98 265.403 1160.87 262.332 1158.65 259.98C1156.56 257.628 1153.42 255.733 1149.24 254.296C1145.19 252.728 1140.22 251.291 1134.34 249.984L1129.84 249.004C1120.43 246.913 1112.33 244.3 1105.53 241.164C1098.87 237.897 1093.71 233.651 1090.05 228.424C1086.52 223.197 1084.76 216.403 1084.76 208.04C1084.76 199.677 1086.72 192.556 1090.64 186.676C1094.69 180.665 1100.3 176.092 1107.49 172.956C1114.81 169.689 1123.37 168.056 1133.17 168.056C1142.97 168.056 1151.66 169.755 1159.24 173.152C1166.94 176.419 1172.96 181.384 1177.27 188.048C1181.71 194.581 1183.93 202.813 1183.93 212.744V218.624H1158.45V212.744C1158.45 207.517 1157.41 203.336 1155.32 200.2C1153.36 196.933 1150.48 194.581 1146.69 193.144C1142.9 191.576 1138.39 190.792 1133.17 190.792C1125.33 190.792 1119.51 192.295 1115.72 195.3C1112.06 198.175 1110.24 202.16 1110.24 207.256C1110.24 210.653 1111.08 213.528 1112.78 215.88C1114.61 218.232 1117.29 220.192 1120.82 221.76C1124.35 223.328 1128.86 224.7 1134.34 225.876L1138.85 226.856C1148.65 228.947 1157.14 231.625 1164.33 234.892C1171.65 238.159 1177.33 242.471 1181.38 247.828C1185.43 253.185 1187.46 260.045 1187.46 268.408C1187.46 276.771 1185.3 284.153 1180.99 290.556C1176.81 296.828 1170.8 301.793 1162.96 305.452C1155.25 308.98 1146.1 310.744 1135.52 310.744ZM1244.78 308C1238.38 308 1233.15 306.04 1229.1 302.12C1225.18 298.069 1223.22 292.712 1223.22 286.048V231.168H1198.91V210.784H1223.22V180.6H1247.91V210.784H1274.57V231.168H1247.91V281.736C1247.91 285.656 1249.74 287.616 1253.4 287.616H1272.22V308H1244.78ZM1333.97 309.568C1326.39 309.568 1319.73 307.869 1313.98 304.472C1308.36 300.944 1303.98 296.109 1300.85 289.968C1297.71 283.827 1296.14 276.771 1296.14 268.8V210.784H1320.84V266.84C1320.84 274.157 1322.6 279.645 1326.13 283.304C1329.79 286.963 1334.95 288.792 1341.61 288.792C1349.19 288.792 1355.07 286.309 1359.25 281.344C1363.43 276.248 1365.53 269.192 1365.53 260.176V210.784H1390.22V308H1365.92V295.26H1362.39C1360.82 298.527 1357.88 301.728 1353.57 304.864C1349.26 308 1342.72 309.568 1333.97 309.568ZM1456.9 310.744C1449.19 310.744 1441.94 308.849 1435.15 305.06C1428.48 301.14 1423.13 295.456 1419.07 288.008C1415.02 280.56 1413 271.544 1413 260.96V257.824C1413 247.24 1415.02 238.224 1419.07 230.776C1423.13 223.328 1428.48 217.709 1435.15 213.92C1441.81 210 1449.06 208.04 1456.9 208.04C1462.78 208.04 1467.68 208.759 1471.6 210.196C1475.65 211.503 1478.92 213.201 1481.4 215.292C1483.89 217.383 1485.78 219.604 1487.09 221.956H1490.61V170.8H1515.31V308H1491.01V296.24H1487.48C1485.26 299.899 1481.79 303.231 1477.09 306.236C1472.52 309.241 1465.79 310.744 1456.9 310.744ZM1464.35 289.184C1471.93 289.184 1478.27 286.767 1483.36 281.932C1488.46 276.967 1491.01 269.78 1491.01 260.372V258.412C1491.01 249.004 1488.46 241.883 1483.36 237.048C1478.4 232.083 1472.06 229.6 1464.35 229.6C1456.77 229.6 1450.43 232.083 1445.34 237.048C1440.24 241.883 1437.69 249.004 1437.69 258.412V260.372C1437.69 269.78 1440.24 276.967 1445.34 281.932C1450.43 286.767 1456.77 289.184 1464.35 289.184ZM1542.69 308V210.784H1567.39V308H1542.69ZM1555.04 199.416C1550.6 199.416 1546.81 197.979 1543.67 195.104C1540.67 192.229 1539.16 188.44 1539.16 183.736C1539.16 179.032 1540.67 175.243 1543.67 172.368C1546.81 169.493 1550.6 168.056 1555.04 168.056C1559.61 168.056 1563.4 169.493 1566.41 172.368C1569.41 175.243 1570.91 179.032 1570.91 183.736C1570.91 188.44 1569.41 192.229 1566.41 195.104C1563.4 197.979 1559.61 199.416 1555.04 199.416ZM1641.01 310.744C1631.34 310.744 1622.65 308.784 1614.94 304.864C1607.23 300.944 1601.16 295.26 1596.71 287.812C1592.27 280.364 1590.05 271.413 1590.05 260.96V257.824C1590.05 247.371 1592.27 238.42 1596.71 230.972C1601.16 223.524 1607.23 217.84 1614.94 213.92C1622.65 210 1631.34 208.04 1641.01 208.04C1650.68 208.04 1659.37 210 1667.08 213.92C1674.79 217.84 1680.86 223.524 1685.31 230.972C1689.75 238.42 1691.97 247.371 1691.97 257.824V260.96C1691.97 271.413 1689.75 280.364 1685.31 287.812C1680.86 295.26 1674.79 300.944 1667.08 304.864C1659.37 308.784 1650.68 310.744 1641.01 310.744ZM1641.01 288.792C1648.59 288.792 1654.86 286.375 1659.83 281.54C1664.79 276.575 1667.27 269.519 1667.27 260.372V258.412C1667.27 249.265 1664.79 242.275 1659.83 237.44C1654.99 232.475 1648.72 229.992 1641.01 229.992C1633.43 229.992 1627.16 232.475 1622.19 237.44C1617.23 242.275 1614.75 249.265 1614.75 258.412V260.372C1614.75 269.519 1617.23 276.575 1622.19 281.54C1627.16 286.375 1633.43 288.792 1641.01 288.792Z" fill="#42AE9E"/>
<path d="M145.974 310.744C135.39 310.744 126.047 308.849 117.946 305.06C109.845 301.271 103.507 295.848 98.9342 288.792C94.3608 281.736 92.0742 273.243 92.0742 263.312V257.824H117.554V263.312C117.554 271.544 120.102 277.751 125.198 281.932C130.294 285.983 137.219 288.008 145.974 288.008C154.859 288.008 161.458 286.244 165.77 282.716C170.213 279.188 172.434 274.68 172.434 269.192C172.434 265.403 171.323 262.332 169.102 259.98C167.011 257.628 163.875 255.733 159.694 254.296C155.643 252.728 150.678 251.291 144.798 249.984L140.29 249.004C130.882 246.913 122.781 244.3 115.986 241.164C109.322 237.897 104.161 233.651 100.502 228.424C96.9742 223.197 95.2102 216.403 95.2102 208.04C95.2102 199.677 97.1702 192.556 101.09 186.676C105.141 180.665 110.759 176.092 117.946 172.956C125.263 169.689 133.822 168.056 143.622 168.056C153.422 168.056 162.111 169.755 169.69 173.152C177.399 176.419 183.41 181.384 187.722 188.048C192.165 194.581 194.386 202.813 194.386 212.744V218.624H168.906V212.744C168.906 207.517 167.861 203.336 165.77 200.2C163.81 196.933 160.935 194.581 157.146 193.144C153.357 191.576 148.849 190.792 143.622 190.792C135.782 190.792 129.967 192.295 126.178 195.3C122.519 198.175 120.69 202.16 120.69 207.256C120.69 210.653 121.539 213.528 123.238 215.88C125.067 218.232 127.746 220.192 131.274 221.76C134.802 223.328 139.31 224.7 144.798 225.876L149.306 226.856C159.106 228.947 167.599 231.625 174.786 234.892C182.103 238.159 187.787 242.471 191.838 247.828C195.889 253.185 197.914 260.045 197.914 268.408C197.914 276.771 195.758 284.153 191.446 290.556C187.265 296.828 181.254 301.793 173.414 305.452C165.705 308.98 156.558 310.744 145.974 310.744ZM228.577 347.2V325.64H281.497C285.156 325.64 286.985 323.68 286.985 319.76V295.26H283.457C282.412 297.481 280.779 299.703 278.557 301.924C276.336 304.145 273.331 305.975 269.541 307.412C265.752 308.849 260.917 309.568 255.037 309.568C247.459 309.568 240.795 307.869 235.045 304.472C229.427 300.944 225.049 296.109 221.913 289.968C218.777 283.827 217.209 276.771 217.209 268.8V210.784H241.905V266.84C241.905 274.157 243.669 279.645 247.197 283.304C250.856 286.963 256.017 288.792 262.681 288.792C270.26 288.792 276.14 286.309 280.321 281.344C284.503 276.248 286.593 269.192 286.593 260.176V210.784H311.289V325.248C311.289 331.912 309.329 337.204 305.409 341.124C301.489 345.175 296.263 347.2 289.729 347.2H228.577ZM338.771 308V210.784H363.075V223.524H366.603C368.171 220.127 371.111 216.925 375.423 213.92C379.735 210.784 386.268 209.216 395.023 209.216C402.601 209.216 409.2 210.98 414.819 214.508C420.568 217.905 425.011 222.675 428.147 228.816C431.283 234.827 432.851 241.883 432.851 249.984V308H408.155V251.944C408.155 244.627 406.325 239.139 402.667 235.48C399.139 231.821 394.043 229.992 387.379 229.992C379.8 229.992 373.92 232.54 369.739 237.636C365.557 242.601 363.467 249.592 363.467 258.608V308H338.771ZM494.108 308C487.706 308 482.479 306.04 478.428 302.12C474.508 298.069 472.548 292.712 472.548 286.048V231.168H448.244V210.784H472.548V180.6H497.244V210.784H523.9V231.168H497.244V281.736C497.244 285.656 499.074 287.616 502.732 287.616H521.548V308H494.108ZM576.439 310.744C569.514 310.744 563.307 309.568 557.819 307.216C552.331 304.733 547.954 301.205 544.687 296.632C541.551 291.928 539.983 286.244 539.983 279.58C539.983 272.916 541.551 267.363 544.687 262.92C547.954 258.347 552.396 254.949 558.015 252.728C563.764 250.376 570.298 249.2 577.615 249.2H604.271V243.712C604.271 239.139 602.834 235.415 599.959 232.54C597.084 229.535 592.511 228.032 586.239 228.032C580.098 228.032 575.524 229.469 572.519 232.344C569.514 235.088 567.554 238.681 566.639 243.124L543.903 235.48C545.471 230.515 547.954 226.007 551.351 221.956C554.879 217.775 559.518 214.443 565.267 211.96C571.147 209.347 578.268 208.04 586.631 208.04C599.436 208.04 609.563 211.241 617.011 217.644C624.459 224.047 628.183 233.324 628.183 245.476V281.736C628.183 285.656 630.012 287.616 633.671 287.616H641.511V308H625.047C620.212 308 616.227 306.824 613.091 304.472C609.955 302.12 608.387 298.984 608.387 295.064V294.868H604.663C604.14 296.436 602.964 298.527 601.135 301.14C599.306 303.623 596.431 305.844 592.511 307.804C588.591 309.764 583.234 310.744 576.439 310.744ZM580.751 290.752C587.676 290.752 593.295 288.857 597.607 285.068C602.05 281.148 604.271 275.987 604.271 269.584V267.624H579.379C574.806 267.624 571.212 268.604 568.599 270.564C565.986 272.524 564.679 275.268 564.679 278.796C564.679 282.324 566.051 285.199 568.795 287.42C571.539 289.641 575.524 290.752 580.751 290.752ZM659.568 308V210.784H683.872V223.524H687.4C688.968 220.127 691.908 216.925 696.22 213.92C700.532 210.784 707.065 209.216 715.82 209.216C723.398 209.216 729.997 210.98 735.616 214.508C741.365 217.905 745.808 222.675 748.944 228.816C752.08 234.827 753.648 241.883 753.648 249.984V308H728.952V251.944C728.952 244.627 727.122 239.139 723.464 235.48C719.936 231.821 714.84 229.992 708.176 229.992C700.597 229.992 694.717 232.54 690.536 237.636C686.354 242.601 684.264 249.592 684.264 258.608V308H659.568ZM826.013 310.744C816.605 310.744 808.046 308.784 800.337 304.864C792.758 300.944 786.748 295.26 782.305 287.812C777.862 280.364 775.641 271.348 775.641 260.764V258.02C775.641 247.436 777.862 238.42 782.305 230.972C786.748 223.524 792.758 217.84 800.337 213.92C808.046 210 816.605 208.04 826.013 208.04C835.29 208.04 843.261 209.673 849.925 212.94C856.589 216.207 861.946 220.715 865.997 226.464C870.178 232.083 872.922 238.485 874.229 245.672L850.317 250.768C849.794 246.848 848.618 243.32 846.789 240.184C844.96 237.048 842.346 234.565 838.949 232.736C835.682 230.907 831.566 229.992 826.601 229.992C821.636 229.992 817.128 231.103 813.077 233.324C809.157 235.415 806.021 238.616 803.669 242.928C801.448 247.109 800.337 252.271 800.337 258.412V260.372C800.337 266.513 801.448 271.74 803.669 276.052C806.021 280.233 809.157 283.435 813.077 285.656C817.128 287.747 821.636 288.792 826.601 288.792C834.049 288.792 839.668 286.897 843.457 283.108C847.377 279.188 849.86 274.092 850.905 267.82L874.817 273.504C873.118 280.429 870.178 286.767 865.997 292.516C861.946 298.135 856.589 302.577 849.925 305.844C843.261 309.111 835.29 310.744 826.013 310.744ZM939.485 310.744C929.815 310.744 921.257 308.719 913.809 304.668C906.491 300.487 900.742 294.672 896.561 287.224C892.51 279.645 890.485 270.76 890.485 260.568V258.216C890.485 248.024 892.51 239.204 896.561 231.756C900.611 224.177 906.295 218.363 913.613 214.312C920.93 210.131 929.423 208.04 939.093 208.04C948.631 208.04 956.929 210.196 963.985 214.508C971.041 218.689 976.529 224.569 980.449 232.148C984.369 239.596 986.329 248.285 986.329 258.216V266.644H915.573C915.834 273.308 918.317 278.731 923.021 282.912C927.725 287.093 933.474 289.184 940.269 289.184C947.194 289.184 952.29 287.681 955.557 284.676C958.823 281.671 961.306 278.339 963.005 274.68L983.193 285.264C981.363 288.661 978.685 292.385 975.157 296.436C971.759 300.356 967.186 303.753 961.437 306.628C955.687 309.372 948.37 310.744 939.485 310.744ZM915.769 248.22H961.241C960.718 242.601 958.431 238.093 954.381 234.696C950.461 231.299 945.299 229.6 938.897 229.6C932.233 229.6 926.941 231.299 923.021 234.696C919.101 238.093 916.683 242.601 915.769 248.22Z" fill="black"/>
</svg>
