<svg width="895" height="180" viewBox="0 0 895 180" fill="none" xmlns="http://www.w3.org/2000/svg">
<path d="M53.9001 142.688C43.3161 142.688 33.9734 140.793 25.8721 137.004C17.7707 133.215 11.4334 127.792 6.86006 120.736C2.28673 113.68 5.99325e-05 105.187 5.99325e-05 95.256V89.768H25.4801V95.256C25.4801 103.488 28.0281 109.695 33.1241 113.876C38.2201 117.927 45.1454 119.952 53.9001 119.952C62.7854 119.952 69.3841 118.188 73.6961 114.66C78.1387 111.132 80.3601 106.624 80.3601 101.136C80.3601 97.3467 79.2494 94.276 77.0281 91.924C74.9374 89.572 71.8014 87.6773 67.6201 86.24C63.5694 84.672 58.6041 83.2347 52.7241 81.928L48.2161 80.948C38.8081 78.8573 30.7067 76.244 23.9121 73.108C17.2481 69.8413 12.0867 65.5947 8.42806 60.368C4.90006 55.1413 3.13606 48.3467 3.13606 39.984C3.13606 31.6213 5.09606 24.5 9.01606 18.62C13.0667 12.6093 18.6854 8.036 25.8721 4.9C33.1894 1.63333 41.7481 -8.82149e-06 51.5481 -8.82149e-06C61.3481 -8.82149e-06 70.0374 1.69866 77.6161 5.096C85.3254 8.36266 91.3361 13.328 95.6481 19.992C100.091 26.5253 102.312 34.7573 102.312 44.688V50.568H76.8321V44.688C76.8321 39.4613 75.7867 35.28 73.6961 32.144C71.7361 28.8773 68.8614 26.5253 65.0721 25.088C61.2827 23.52 56.7747 22.736 51.5481 22.736C43.7081 22.736 37.8934 24.2387 34.1041 27.244C30.4454 30.1187 28.6161 34.104 28.6161 39.2C28.6161 42.5973 29.4654 45.472 31.1641 47.824C32.9934 50.176 35.6721 52.136 39.2001 53.704C42.7281 55.272 47.2361 56.644 52.7241 57.82L57.2321 58.8C67.0321 60.8907 75.5254 63.5693 82.7121 66.836C90.0294 70.1027 95.7134 74.4147 99.7641 79.772C103.815 85.1293 105.84 91.9893 105.84 100.352C105.84 108.715 103.684 116.097 99.3721 122.5C95.1907 128.772 89.1801 133.737 81.3401 137.396C73.6307 140.924 64.4841 142.688 53.9001 142.688ZM136.503 179.144V157.584H189.423C193.082 157.584 194.911 155.624 194.911 151.704V127.204H191.383C190.338 129.425 188.705 131.647 186.483 133.868C184.262 136.089 181.257 137.919 177.467 139.356C173.678 140.793 168.843 141.512 162.963 141.512C155.385 141.512 148.721 139.813 142.971 136.416C137.353 132.888 132.975 128.053 129.839 121.912C126.703 115.771 125.135 108.715 125.135 100.744V42.728H149.831V98.784C149.831 106.101 151.595 111.589 155.123 115.248C158.782 118.907 163.943 120.736 170.607 120.736C178.186 120.736 184.066 118.253 188.247 113.288C192.429 108.192 194.519 101.136 194.519 92.12V42.728H219.215V157.192C219.215 163.856 217.255 169.148 213.335 173.068C209.415 177.119 204.189 179.144 197.655 179.144H136.503ZM246.697 139.944V42.728H271.001V55.468H274.529C276.097 52.0707 279.037 48.8693 283.349 45.864C287.661 42.728 294.194 41.16 302.949 41.16C310.527 41.16 317.126 42.924 322.745 46.452C328.494 49.8493 332.937 54.6187 336.073 60.76C339.209 66.7707 340.777 73.8267 340.777 81.928V139.944H316.081V83.888C316.081 76.5707 314.251 71.0827 310.593 67.424C307.065 63.7653 301.969 61.936 295.305 61.936C287.726 61.936 281.846 64.484 277.665 69.58C273.483 74.5453 271.393 81.536 271.393 90.552V139.944H246.697ZM402.034 139.944C395.632 139.944 390.405 137.984 386.354 134.064C382.434 130.013 380.474 124.656 380.474 117.992V63.112H356.17V42.728H380.474V12.544H405.17V42.728H431.826V63.112H405.17V113.68C405.17 117.6 407 119.56 410.658 119.56H429.474V139.944H402.034ZM484.365 142.688C477.44 142.688 471.233 141.512 465.745 139.16C460.257 136.677 455.88 133.149 452.613 128.576C449.477 123.872 447.909 118.188 447.909 111.524C447.909 104.86 449.477 99.3067 452.613 94.864C455.88 90.2907 460.322 86.8933 465.941 84.672C471.69 82.32 478.224 81.144 485.541 81.144H512.197V75.656C512.197 71.0827 510.76 67.3587 507.885 64.484C505.01 61.4787 500.437 59.976 494.165 59.976C488.024 59.976 483.45 61.4133 480.445 64.288C477.44 67.032 475.48 70.6253 474.565 75.068L451.829 67.424C453.397 62.4587 455.88 57.9507 459.277 53.9C462.805 49.7187 467.444 46.3867 473.193 43.904C479.073 41.2907 486.194 39.984 494.557 39.984C507.362 39.984 517.489 43.1853 524.937 49.588C532.385 55.9907 536.109 65.268 536.109 77.42V113.68C536.109 117.6 537.938 119.56 541.597 119.56H549.437V139.944H532.973C528.138 139.944 524.153 138.768 521.017 136.416C517.881 134.064 516.313 130.928 516.313 127.008V126.812H512.589C512.066 128.38 510.89 130.471 509.061 133.084C507.232 135.567 504.357 137.788 500.437 139.748C496.517 141.708 491.16 142.688 484.365 142.688ZM488.677 122.696C495.602 122.696 501.221 120.801 505.533 117.012C509.976 113.092 512.197 107.931 512.197 101.528V99.568H487.305C482.732 99.568 479.138 100.548 476.525 102.508C473.912 104.468 472.605 107.212 472.605 110.74C472.605 114.268 473.977 117.143 476.721 119.364C479.465 121.585 483.45 122.696 488.677 122.696ZM567.494 139.944V42.728H591.798V55.468H595.326C596.894 52.0707 599.834 48.8693 604.146 45.864C608.458 42.728 614.991 41.16 623.746 41.16C631.324 41.16 637.923 42.924 643.542 46.452C649.291 49.8493 653.734 54.6187 656.87 60.76C660.006 66.7707 661.574 73.8267 661.574 81.928V139.944H636.878V83.888C636.878 76.5707 635.048 71.0827 631.39 67.424C627.862 63.7653 622.766 61.936 616.102 61.936C608.523 61.936 602.643 64.484 598.462 69.58C594.28 74.5453 592.19 81.536 592.19 90.552V139.944H567.494ZM733.939 142.688C724.531 142.688 715.972 140.728 708.263 136.808C700.684 132.888 694.674 127.204 690.231 119.756C685.788 112.308 683.567 103.292 683.567 92.708V89.964C683.567 79.38 685.788 70.364 690.231 62.916C694.674 55.468 700.684 49.784 708.263 45.864C715.972 41.944 724.531 39.984 733.939 39.984C743.216 39.984 751.187 41.6173 757.851 44.884C764.515 48.1507 769.872 52.6587 773.923 58.408C778.104 64.0267 780.848 70.4293 782.155 77.616L758.243 82.712C757.72 78.792 756.544 75.264 754.715 72.128C752.886 68.992 750.272 66.5093 746.875 64.68C743.608 62.8507 739.492 61.936 734.527 61.936C729.562 61.936 725.054 63.0467 721.003 65.268C717.083 67.3587 713.947 70.56 711.595 74.872C709.374 79.0533 708.263 84.2147 708.263 90.356V92.316C708.263 98.4573 709.374 103.684 711.595 107.996C713.947 112.177 717.083 115.379 721.003 117.6C725.054 119.691 729.562 120.736 734.527 120.736C741.975 120.736 747.594 118.841 751.383 115.052C755.303 111.132 757.786 106.036 758.831 99.764L782.743 105.448C781.044 112.373 778.104 118.711 773.923 124.46C769.872 130.079 764.515 134.521 757.851 137.788C751.187 141.055 743.216 142.688 733.939 142.688ZM847.411 142.688C837.741 142.688 829.183 140.663 821.735 136.612C814.417 132.431 808.668 126.616 804.487 119.168C800.436 111.589 798.411 102.704 798.411 92.512V90.16C798.411 79.968 800.436 71.148 804.487 63.7C808.537 56.1213 814.221 50.3067 821.539 46.256C828.856 42.0747 837.349 39.984 847.019 39.984C856.557 39.984 864.855 42.14 871.911 46.452C878.967 50.6333 884.455 56.5133 888.375 64.092C892.295 71.54 894.255 80.2293 894.255 90.16V98.588H823.499C823.76 105.252 826.243 110.675 830.947 114.856C835.651 119.037 841.4 121.128 848.195 121.128C855.12 121.128 860.216 119.625 863.483 116.62C866.749 113.615 869.232 110.283 870.931 106.624L891.119 117.208C889.289 120.605 886.611 124.329 883.083 128.38C879.685 132.3 875.112 135.697 869.363 138.572C863.613 141.316 856.296 142.688 847.411 142.688ZM823.695 80.164H869.167C868.644 74.5453 866.357 70.0373 862.307 66.64C858.387 63.2427 853.225 61.544 846.823 61.544C840.159 61.544 834.867 63.2427 830.947 66.64C827.027 70.0373 824.609 74.5453 823.695 80.164Z" fill="white"/>
</svg>
